<?xml version="1.0" ?><svg xmlns="http://www.w3.org/2000/svg" id="Layer_1" data-name="Layer 1" viewBox="0 0 128 128"><defs><style>
      .cls-1 {
        fill-rule: evenodd;
        stroke-width: 0px;
      }
    </style></defs><path id="path" class="cls-1" d="m78.46,18.91l-4.68,9.37-1.47-1.06c-4.95-3.6-11.66-3.6-16.61,0l-1.42,1.03-4.67-9.34c-2.02-4.02-7.18-5.23-10.78-2.53l-10.84,8.17c-3.59,2.71-3.85,8.01-.54,11.06l7.38,6.77-2.04,1.48c-4.95,3.6-7.02,9.98-5.13,15.8l.49,1.5-9.33,1.24c-4.46.6-7.29,5.09-5.9,9.37l4.2,12.91c1.39,4.28,6.32,6.25,10.28,4.1l8.27-4.47.74,2.28c1.89,5.82,7.32,9.76,13.44,9.76h2.5l-1.76,9.56c-.81,4.42,2.58,8.5,7.08,8.5h13.58c4.5,0,7.9-4.08,7.08-8.5l-1.76-9.56h1.59c6.12,0,11.55-3.94,13.44-9.76l.73-2.25,8.22,4.44c3.95,2.15,8.88.18,10.27-4.1l4.2-12.91c1.39-4.28-1.44-8.77-5.9-9.37l-9.26-1.23.49-1.51c1.89-5.82-.18-12.2-5.14-15.8l-2-1.45,7.4-6.8c3.32-3.05,3.06-8.35-.53-11.06l-10.85-8.17c-3.59-2.7-8.76-1.49-10.77,2.53Zm-34.2,42.39c0-4.12,3.34-7.45,7.45-7.45s7.45,3.33,7.45,7.45-3.33,7.45-7.45,7.45-7.45-3.34-7.45-7.45Zm24.57,0c0-4.12,3.34-7.45,7.46-7.45s7.45,3.33,7.45,7.45-3.34,7.45-7.45,7.45-7.46-3.34-7.46-7.45Z"/></svg>